<svg viewBox="0 0 495 644" xmlns="http://www.w3.org/2000/svg" xml:space="preserve" style="fill-rule:evenodd;clip-rule:evenodd;stroke-linecap:round;stroke-linejoin:round;stroke-miterlimit:1.5"><path id="Back-Cape" d="M103.188 97.333 73.943 216.518l18.273 23.91-22.114 91.212 13.475 21.458-23.878 71.01 12.898 72.184-15.519 64.071 7.339 42.607c104.464-15.352 193.357-13.627 268.483 3.198l15.814-31.906-5.378-68.871 17.349-43.31-6.038-81.612 4.661-42.52-9.857-71.232 11.944-28.446-3.324-98.89c-51.558 116.226-139.279 79.281-254.883-42.048Z" style="stroke:#ffe000;stroke-width:2px"/><g id="Boots"><path d="m256.628 617.304 67.743.313-31.139-16.932-9.005-100.049-31.049 2.195 3.45 114.473Z" style="stroke:#ffe000;stroke-width:2px"/><path d="m86.017 615.657 57.707 1.019-7.3-12.502 29.253-119.533-46.102-4.077-33.558 135.093Z" style="stroke:#ffe000;stroke-width:2px" transform="translate(34.89 5.488)"/></g><path d="m386.813 210.255 8.704-44.247c-1.159 39.043 19.696 28.826 36.147 19.665l-3.898 32.932-40.953-8.35Z" style="fill:#624b46;stroke:#000;stroke-width:2px" transform="translate(-142.334 -20.04)" id="Neck"/><path id="Arm" d="m337.813 329.657-19.049-137.608-47.016 23.336 31.043 118.482 35.022-4.21Z" style="stroke:#ffe000;stroke-width:2px"/><g id="Robe"><path d="M94.495 562.487c39.592 24.711 202.944 35.349 209.187 16.811 10.16-44.851-.71-142.031-19.131-202.853l-147.278-26.344-42.778 212.386Z" style="stroke:#ffe000;stroke-width:2px"/><path d="m211.284 375.68-10.236 251.71c16.609 18.667 40.7 22.083 62.85 3.325l-12.809-251.351c-9.692-12.076-23.795-15.64-39.805-3.684Z" style="stroke:#ffe000;stroke-width:2.1px" transform="matrix(1 -.09708 0 1 -7.527 17.762)"/><path d="m223.423 523.881-9.502 94.143c0 2.281 4.258 4.133 9.502 4.133 5.244 0 9.502-1.852 9.502-4.133l-9.502-94.143Z" style="fill:#ffe000;stroke:#000;stroke-width:1.17px" transform="matrix(1 -.1204 0 2.33226 2.034 -801.343)"/><path d="m281.745 361.314 17.593-62.891 12.713-55.635c-1.095-11.555-3.999-22.206-9.65-31.483-17.19 6.398-36.043 11.371-59.375 12.505-15.296-4.511-40.47-35.34-53.573-45.552l-21.443 12.263-29.104 140.504 22.882 10.839c46.486 23.677 85.248 28.962 119.957 19.45Z" style="stroke:#ffe000;stroke-width:2px"/><path d="m143.335 409.499 182.227-139.905 5.166 18.474-142.415 151.858-44.978-30.427Z" style="fill:#ffd33f;stroke:#000;stroke-width:2px" transform="translate(7.17 -76.27)"/><path d="M141.962 333.381c56.761 19.088 105.935 29.671 141.499 24.992l2.572 19.847c-41.737 7.427-91.789-1.774-149.584-26.463l5.513-18.376Z" style="fill:#ffd33f;stroke:#000;stroke-width:2px"/><ellipse cx="254.61" cy="269.893" rx="14.837" ry="20.915" style="fill:#cf0088;stroke:#fff9ce;stroke-width:2.28px" transform="matrix(1.03024 -.09013 -.1697 .9855 42.39 9.66)"/><ellipse cx="254.61" cy="269.893" rx="14.837" ry="20.915" style="fill:#00bdff;stroke:#fff9ce;stroke-width:5.9px" transform="matrix(.39745 -.03477 -.06547 .3802 175.484 159.602)"/><path d="M251.889 237.664c-22.853-25.928-35.885-55.282-41.246-87.312M271.9 236.686c17.773-17.623 30.647-36.88 39.877-57.351" style="fill:none;stroke:#fff9ce;stroke-width:2px"/></g><g id="Scarf"><path d="M240.415 224.806c34.464-.093 62.687-7.991 84.27-24.253l-2.261-39.874c-1.834 19.591-22.816 26.429-57.262 25.466-27.444-13.035-50.571-28.394-68.423-50.747l-21.89 33.811c17.37 23.018 38.055 42.721 65.566 55.597Z" style="fill:#0400ff;stroke:#000;stroke-width:2px"/><path d="M200.62 140.054c22.276 54.187 41.5 82.757 55.061 84.162" style="fill:none;stroke:#000;stroke-width:2px"/><path d="M329.987 178.151c-10.398 9.05-49.549 31.277-70.836 31.9-7.217-1.992-13.37-4.871-18.482-8.616-9.13-6.577-14.633-9.982-20.422-18.669 11.574 8.62 22.296 12.306 38.312 19.326 18.382 5.459 60.89-19.999 71.428-23.941Z" style="stroke:#000;stroke-width:2px"/><path d="M237.414 210.305c-16.634-4.095-36.001-19.423-48.907-29.877M266.592 222.327l32.149-24.806M259.473 204.21c7.252-5.983 7.578-10.514 4.387-18.631M257.958 209.809c2.336 4.281 1.299 11.588-2.989 15.195M279.486 212.378c18.668-3.876 37.605-13.972 51.362-22.584" style="fill:none;stroke:#000;stroke-width:2px"/></g><g id="Front-Cape"><g id="Feathers"><path id="feathers" d="m203.408 170.023-100.22-72.69C208.273 13.286 300.644.99 357.884 140.111l-42.781 45.193c-49.974-99.771-73.252-123.188-111.695-15.281Z" style="fill:#fff;stroke:#000;stroke-width:2px"/><g transform="matrix(-1.24812 .74969 -.49247 -1.46601 457.912 91.312)"><g id="feather"><path d="m154 83.777 4.634 19.785h-9.268L154 83.777Z" style="fill:#fff;stroke:#000;stroke-width:1.21px" transform="matrix(1 0 0 -1 0 207.035)"/><path d="m154 83.777 4.634 19.785h-9.268L154 83.777Z" style="fill:#fff;stroke:#000;stroke-width:1.5px"/></g><g id="feather1"><path d="m154 83.777 4.634 19.785h-9.268L154 83.777Z" style="fill:#fff;stroke:#000;stroke-width:1.21px" transform="matrix(1 0 0 -1 9.372 207.035)"/><path d="m154 83.777 4.634 19.785h-9.268L154 83.777Z" style="fill:#fff;stroke:#000;stroke-width:1.5px" transform="translate(9.372)"/></g><g id="feather2"><path d="m154 83.777 4.634 19.785h-9.268L154 83.777Z" style="fill:#fff;stroke:#000;stroke-width:1.21px" transform="matrix(1 0 0 -1 -9.164 207.035)"/><path d="m154 83.777 4.634 19.785h-9.268L154 83.777Z" style="fill:#fff;stroke:#000;stroke-width:1.5px" transform="translate(-9.164)"/></g><g id="feather3"><path d="m154 83.777 4.634 19.785h-9.268L154 83.777Z" style="fill:#fff;stroke:#000;stroke-width:1.21px" transform="matrix(1 0 0 -1 4.478 187.041)"/><path d="m154 83.777 4.634 19.785h-9.268L154 83.777Z" style="fill:#fff;stroke:#000;stroke-width:1.5px" transform="translate(4.478 -19.994)"/></g><g id="feather4"><path d="m154 83.777 4.634 19.785h-9.268L154 83.777Z" style="fill:#fff;stroke:#000;stroke-width:1.21px" transform="matrix(1 0 0 -1 13.85 187.041)"/><path d="m154 83.777 4.634 19.785h-9.268L154 83.777Z" style="fill:#fff;stroke:#000;stroke-width:1.5px" transform="translate(13.85 -19.994)"/></g><g id="feather5"><path d="m154 83.777 4.634 19.785h-9.268L154 83.777Z" style="fill:#fff;stroke:#000;stroke-width:1.21px" transform="matrix(1 0 0 -1 -4.686 187.041)"/><path d="m154 83.777 4.634 19.785h-9.268L154 83.777Z" style="fill:#fff;stroke:#000;stroke-width:1.5px" transform="translate(-4.686 -19.994)"/></g><g id="feather6"><path d="m154 83.777 4.634 19.785h-9.268L154 83.777Z" style="fill:#fff;stroke:#000;stroke-width:1.21px" transform="matrix(1 0 0 -1 27.596 207.035)"/><path d="m154 83.777 4.634 19.785h-9.268L154 83.777Z" style="fill:#fff;stroke:#000;stroke-width:1.5px" transform="translate(27.596)"/></g><g id="feather7"><path d="m154 83.777 4.634 19.785h-9.268L154 83.777Z" style="fill:#fff;stroke:#000;stroke-width:1.21px" transform="matrix(1 0 0 -1 36.968 207.035)"/><path d="m154 83.777 4.634 19.785h-9.268L154 83.777Z" style="fill:#fff;stroke:#000;stroke-width:1.5px" transform="translate(36.968)"/></g><g id="feather8"><path d="m154 83.777 4.634 19.785h-9.268L154 83.777Z" style="fill:#fff;stroke:#000;stroke-width:1.21px" transform="matrix(1 0 0 -1 18.432 207.035)"/><path d="m154 83.777 4.634 19.785h-9.268L154 83.777Z" style="fill:#fff;stroke:#000;stroke-width:1.5px" transform="translate(18.432)"/></g><g id="feather9"><path d="m154 83.777 4.634 19.785h-9.268L154 83.777Z" style="fill:#fff;stroke:#000;stroke-width:1.21px" transform="matrix(1 0 0 -1 32.073 187.041)"/><path d="m154 83.777 4.634 19.785h-9.268L154 83.777Z" style="fill:#fff;stroke:#000;stroke-width:1.5px" transform="translate(32.073 -19.994)"/></g><g id="feather10"><path d="m154 83.777 4.634 19.785h-9.268L154 83.777Z" style="fill:#fff;stroke:#000;stroke-width:1.21px" transform="matrix(1 0 0 -1 41.445 187.041)"/><path d="m154 83.777 4.634 19.785h-9.268L154 83.777Z" style="fill:#fff;stroke:#000;stroke-width:1.5px" transform="translate(41.445 -19.994)"/></g><g id="feather11"><path d="m154 83.777 4.634 19.785h-9.268L154 83.777Z" style="fill:#fff;stroke:#000;stroke-width:1.21px" transform="matrix(1 0 0 -1 22.91 187.041)"/><path d="m154 83.777 4.634 19.785h-9.268L154 83.777Z" style="fill:#fff;stroke:#000;stroke-width:1.5px" transform="translate(22.91 -19.994)"/></g><g id="feather12"><path d="m154 83.777 4.634 19.785h-9.268L154 83.777Z" style="fill:#fff;stroke:#000;stroke-width:1.21px" transform="matrix(1 0 0 -1 0 245.148)"/><path d="m154 83.777 4.634 19.785h-9.268L154 83.777Z" style="fill:#fff;stroke:#000;stroke-width:1.5px" transform="translate(0 38.113)"/></g><g id="feather13"><path d="m154 83.777 4.634 19.785h-9.268L154 83.777Z" style="fill:#fff;stroke:#000;stroke-width:1.21px" transform="matrix(1 0 0 -1 9.372 245.148)"/><path d="m154 83.777 4.634 19.785h-9.268L154 83.777Z" style="fill:#fff;stroke:#000;stroke-width:1.5px" transform="translate(9.372 38.113)"/></g><path d="m154 83.777 4.634 19.785h-9.268L154 83.777Z" style="fill:#fff;stroke:#000;stroke-width:1.5px" transform="translate(-9.164 38.113)" id="feather14"/><g id="feather15"><path d="m154 83.777 4.634 19.785h-9.268L154 83.777Z" style="fill:#fff;stroke:#000;stroke-width:1.21px" transform="matrix(1 0 0 -1 4.478 225.154)"/><path d="m154 83.777 4.634 19.785h-9.268L154 83.777Z" style="fill:#fff;stroke:#000;stroke-width:1.5px" transform="translate(4.478 18.12)"/></g><g id="feather16"><path d="m154 83.777 4.634 19.785h-9.268L154 83.777Z" style="fill:#fff;stroke:#000;stroke-width:1.21px" transform="matrix(1 0 0 -1 13.85 225.154)"/><path d="m154 83.777 4.634 19.785h-9.268L154 83.777Z" style="fill:#fff;stroke:#000;stroke-width:1.5px" transform="translate(13.85 18.12)"/></g><g id="feather17"><path d="m154 83.777 4.634 19.785h-9.268L154 83.777Z" style="fill:#fff;stroke:#000;stroke-width:1.21px" transform="matrix(1 0 0 -1 -4.686 225.154)"/><path d="m154 83.777 4.634 19.785h-9.268L154 83.777Z" style="fill:#fff;stroke:#000;stroke-width:1.5px" transform="translate(-4.686 18.12)"/></g><g id="feather18"><path d="m154 83.777 4.634 19.785h-9.268L154 83.777Z" style="fill:#fff;stroke:#000;stroke-width:1.21px" transform="matrix(1 0 0 -1 27.596 245.148)"/><path d="m154 83.777 4.634 19.785h-9.268L154 83.777Z" style="fill:#fff;stroke:#000;stroke-width:1.5px" transform="translate(27.596 38.113)"/></g><g id="feather19"><path d="m154 83.777 4.634 19.785h-9.268L154 83.777Z" style="fill:#fff;stroke:#000;stroke-width:1.21px" transform="matrix(1 0 0 -1 36.968 245.148)"/><path d="m154 83.777 4.634 19.785h-9.268L154 83.777Z" style="fill:#fff;stroke:#000;stroke-width:1.5px" transform="translate(36.968 38.113)"/></g><g id="feather20"><path d="m154 83.777 4.634 19.785h-9.268L154 83.777Z" style="fill:#fff;stroke:#000;stroke-width:1.21px" transform="matrix(1 0 0 -1 18.432 245.148)"/><path d="m154 83.777 4.634 19.785h-9.268L154 83.777Z" style="fill:#fff;stroke:#000;stroke-width:1.5px" transform="translate(18.432 38.113)"/></g><g id="feather21"><path d="m154 83.777 4.634 19.785h-9.268L154 83.777Z" style="fill:#fff;stroke:#000;stroke-width:1.21px" transform="matrix(1 0 0 -1 32.073 225.154)"/><path d="m154 83.777 4.634 19.785h-9.268L154 83.777Z" style="fill:#fff;stroke:#000;stroke-width:1.5px" transform="translate(32.073 18.12)"/></g><g id="feather22"><path d="m154 83.777 4.634 19.785h-9.268L154 83.777Z" style="fill:#fff;stroke:#000;stroke-width:1.21px" transform="matrix(1 0 0 -1 41.445 225.154)"/><path d="m154 83.777 4.634 19.785h-9.268L154 83.777Z" style="fill:#fff;stroke:#000;stroke-width:1.5px" transform="translate(41.445 18.12)"/></g><g id="feather23"><path d="m154 83.777 4.634 19.785h-9.268L154 83.777Z" style="fill:#fff;stroke:#000;stroke-width:1.21px" transform="matrix(1 0 0 -1 22.91 225.154)"/><path d="m154 83.777 4.634 19.785h-9.268L154 83.777Z" style="fill:#fff;stroke:#000;stroke-width:1.5px" transform="translate(22.91 18.12)"/></g></g><g transform="matrix(.5681 -1.44896 1.09998 1.11553 -64.03 226.878)"><g id="feather24"><path d="m154 83.777 4.634 19.785h-9.268L154 83.777Z" style="fill:#fff;stroke:#000;stroke-width:1.08px" transform="matrix(1 0 0 -1 0 207.035)"/><path d="m154 83.777 4.634 19.785h-9.268L154 83.777Z" style="fill:#fff;stroke:#000;stroke-width:1.66px"/></g><g id="feather25"><path d="m154 83.777 4.634 19.785h-9.268L154 83.777Z" style="fill:#fff;stroke:#000;stroke-width:1.08px" transform="matrix(1 0 0 -1 9.372 207.035)"/><path d="m154 83.777 4.634 19.785h-9.268L154 83.777Z" style="fill:#fff;stroke:#000;stroke-width:1.66px" transform="translate(9.372)"/></g><g id="feather26"><path d="m154 83.777 4.634 19.785h-9.268L154 83.777Z" style="fill:#fff;stroke:#000;stroke-width:1.08px" transform="matrix(1 0 0 -1 -9.164 207.035)"/><path d="m154 83.777 4.634 19.785h-9.268L154 83.777Z" style="fill:#fff;stroke:#000;stroke-width:1.66px" transform="translate(-9.164)"/></g><g id="feather27"><path d="m154 83.777 4.634 19.785h-9.268L154 83.777Z" style="fill:#fff;stroke:#000;stroke-width:1.08px" transform="matrix(1 0 0 -1 4.478 187.041)"/><path d="m154 83.777 4.634 19.785h-9.268L154 83.777Z" style="fill:#fff;stroke:#000;stroke-width:1.66px" transform="translate(4.478 -19.994)"/></g><g id="feather28"><path d="m154 83.777 4.634 19.785h-9.268L154 83.777Z" style="fill:#fff;stroke:#000;stroke-width:1.08px" transform="matrix(1 0 0 -1 13.85 187.041)"/><path d="m154 83.777 4.634 19.785h-9.268L154 83.777Z" style="fill:#fff;stroke:#000;stroke-width:1.66px" transform="translate(13.85 -19.994)"/></g><g id="feather29"><path d="m154 83.777 4.634 19.785h-9.268L154 83.777Z" style="fill:#fff;stroke:#000;stroke-width:1.08px" transform="matrix(1 0 0 -1 -4.686 187.041)"/><path d="m154 83.777 4.634 19.785h-9.268L154 83.777Z" style="fill:#fff;stroke:#000;stroke-width:1.66px" transform="translate(-4.686 -19.994)"/></g><g id="feather30"><path d="m154 83.777 4.634 19.785h-9.268L154 83.777Z" style="fill:#fff;stroke:#000;stroke-width:1.08px" transform="matrix(1 0 0 -1 27.596 207.035)"/><path d="m154 83.777 4.634 19.785h-9.268L154 83.777Z" style="fill:#fff;stroke:#000;stroke-width:1.66px" transform="translate(27.596)"/></g><g id="feather31"><path d="m154 83.777 4.634 19.785h-9.268L154 83.777Z" style="fill:#fff;stroke:#000;stroke-width:1.08px" transform="matrix(1 0 0 -1 36.968 207.035)"/><path d="m154 83.777 4.634 19.785h-9.268L154 83.777Z" style="fill:#fff;stroke:#000;stroke-width:1.66px" transform="translate(36.968)"/></g><g id="feather32"><path d="m154 83.777 4.634 19.785h-9.268L154 83.777Z" style="fill:#fff;stroke:#000;stroke-width:1.08px" transform="matrix(1 0 0 -1 18.432 207.035)"/><path d="m154 83.777 4.634 19.785h-9.268L154 83.777Z" style="fill:#fff;stroke:#000;stroke-width:1.66px" transform="translate(18.432)"/></g><g id="feather33"><path d="m154 83.777 4.634 19.785h-9.268L154 83.777Z" style="fill:#fff;stroke:#000;stroke-width:1.08px" transform="matrix(1 0 0 -1 32.073 187.041)"/><path d="m154 83.777 4.634 19.785h-9.268L154 83.777Z" style="fill:#fff;stroke:#000;stroke-width:1.66px" transform="translate(32.073 -19.994)"/></g><g id="feather34"><path d="m154 83.777 4.634 19.785h-9.268L154 83.777Z" style="fill:#fff;stroke:#000;stroke-width:1.08px" transform="matrix(1 0 0 -1 41.445 187.041)"/><path d="m154 83.777 4.634 19.785h-9.268L154 83.777Z" style="fill:#fff;stroke:#000;stroke-width:1.66px" transform="translate(41.445 -19.994)"/></g><g id="feather35"><path d="m154 83.777 4.634 19.785h-9.268L154 83.777Z" style="fill:#fff;stroke:#000;stroke-width:1.08px" transform="matrix(1 0 0 -1 22.91 187.041)"/><path d="m154 83.777 4.634 19.785h-9.268L154 83.777Z" style="fill:#fff;stroke:#000;stroke-width:1.66px" transform="translate(22.91 -19.994)"/></g><g id="feather36"><path d="m154 83.777 4.634 19.785h-9.268L154 83.777Z" style="fill:#fff;stroke:#000;stroke-width:1.08px" transform="matrix(1 0 0 -1 0 245.148)"/><path d="m154 83.777 4.634 19.785h-9.268L154 83.777Z" style="fill:#fff;stroke:#000;stroke-width:1.66px" transform="translate(0 38.113)"/></g><g id="feather37"><path d="m154 83.777 4.634 19.785h-9.268L154 83.777Z" style="fill:#fff;stroke:#000;stroke-width:1.08px" transform="matrix(1 0 0 -1 9.372 245.148)"/><path d="m154 83.777 4.634 19.785h-9.268L154 83.777Z" style="fill:#fff;stroke:#000;stroke-width:1.66px" transform="translate(9.372 38.113)"/></g><g id="feather38"><path d="m154 83.777 4.634 19.785h-9.268L154 83.777Z" style="fill:#fff;stroke:#000;stroke-width:1.08px" transform="matrix(1 0 0 -1 -9.164 245.148)"/><path d="m154 83.777 4.634 19.785h-9.268L154 83.777Z" style="fill:#fff;stroke:#000;stroke-width:1.66px" transform="translate(-9.164 38.113)"/></g><g id="feather39"><path d="m154 83.777 4.634 19.785h-9.268L154 83.777Z" style="fill:#fff;stroke:#000;stroke-width:1.08px" transform="matrix(1 0 0 -1 4.478 225.154)"/><path d="m154 83.777 4.634 19.785h-9.268L154 83.777Z" style="fill:#fff;stroke:#000;stroke-width:1.66px" transform="translate(4.478 18.12)"/></g><g id="feather40"><path d="m154 83.777 4.634 19.785h-9.268L154 83.777Z" style="fill:#fff;stroke:#000;stroke-width:1.08px" transform="matrix(1 0 0 -1 13.85 225.154)"/><path d="m154 83.777 4.634 19.785h-9.268L154 83.777Z" style="fill:#fff;stroke:#000;stroke-width:1.66px" transform="translate(13.85 18.12)"/></g><g id="feather41"><path d="m154 83.777 4.634 19.785h-9.268L154 83.777Z" style="fill:#fff;stroke:#000;stroke-width:1.08px" transform="matrix(1 0 0 -1 -4.686 225.154)"/><path d="m154 83.777 4.634 19.785h-9.268L154 83.777Z" style="fill:#fff;stroke:#000;stroke-width:1.66px" transform="translate(-4.686 18.12)"/></g><g id="feather42"><path d="m154 83.777 4.634 19.785h-9.268L154 83.777Z" style="fill:#fff;stroke:#000;stroke-width:1.08px" transform="matrix(1 0 0 -1 27.596 245.148)"/><path d="m154 83.777 4.634 19.785h-9.268L154 83.777Z" style="fill:#fff;stroke:#000;stroke-width:1.66px" transform="translate(27.596 38.113)"/></g><g id="feather43"><path d="m154 83.777 4.634 19.785h-9.268L154 83.777Z" style="fill:#fff;stroke:#000;stroke-width:1.08px" transform="matrix(1 0 0 -1 36.968 245.148)"/><path d="m154 83.777 4.634 19.785h-9.268L154 83.777Z" style="fill:#fff;stroke:#000;stroke-width:1.66px" transform="translate(36.968 38.113)"/></g><g id="feather44"><path d="m154 83.777 4.634 19.785h-9.268L154 83.777Z" style="fill:#fff;stroke:#000;stroke-width:1.08px" transform="matrix(1 0 0 -1 18.432 245.148)"/><path d="m154 83.777 4.634 19.785h-9.268L154 83.777Z" style="fill:#fff;stroke:#000;stroke-width:1.66px" transform="translate(18.432 38.113)"/></g><g id="feather45"><path d="m154 83.777 4.634 19.785h-9.268L154 83.777Z" style="fill:#fff;stroke:#000;stroke-width:1.08px" transform="matrix(1 0 0 -1 32.073 225.154)"/><path d="m154 83.777 4.634 19.785h-9.268L154 83.777Z" style="fill:#fff;stroke:#000;stroke-width:1.66px" transform="translate(32.073 18.12)"/></g><g id="feather46"><path d="m154 83.777 4.634 19.785h-9.268L154 83.777Z" style="fill:#fff;stroke:#000;stroke-width:1.08px" transform="matrix(1 0 0 -1 41.445 225.154)"/><path d="m154 83.777 4.634 19.785h-9.268L154 83.777Z" style="fill:#fff;stroke:#000;stroke-width:1.66px" transform="translate(41.445 18.12)"/></g><g id="feather47"><path d="m154 83.777 4.634 19.785h-9.268L154 83.777Z" style="fill:#fff;stroke:#000;stroke-width:1.08px" transform="matrix(1 0 0 -1 22.91 225.154)"/><path d="m154 83.777 4.634 19.785h-9.268L154 83.777Z" style="fill:#fff;stroke:#000;stroke-width:1.66px" transform="translate(22.91 18.12)"/></g></g><g transform="matrix(1.41918 -.08762 .09651 1.56314 -.549 -117.144)"><g id="feather48"><path d="m154 83.777 4.634 19.785h-9.268L154 83.777Z" style="fill:#fff;stroke:#000;stroke-width:1.34px" transform="matrix(1 0 0 -1 0 207.035)"/><path d="m154 83.777 4.634 19.785h-9.268L154 83.777Z" style="fill:#fff;stroke:#000;stroke-width:1.34px"/></g><g id="feather49"><path d="m154 83.777 4.634 19.785h-9.268L154 83.777Z" style="fill:#fff;stroke:#000;stroke-width:1.34px" transform="matrix(1 0 0 -1 9.372 207.035)"/><path d="m154 83.777 4.634 19.785h-9.268L154 83.777Z" style="fill:#fff;stroke:#000;stroke-width:1.34px" transform="translate(9.372)"/></g><g id="feather50"><path d="m154 83.777 4.634 19.785h-9.268L154 83.777Z" style="fill:#fff;stroke:#000;stroke-width:1.34px" transform="matrix(1 0 0 -1 -9.164 207.035)"/><path d="m154 83.777 4.634 19.785h-9.268L154 83.777Z" style="fill:#fff;stroke:#000;stroke-width:1.34px" transform="translate(-9.164)"/></g><g id="feather51"><path d="m154 83.777 4.634 19.785h-9.268L154 83.777Z" style="fill:#fff;stroke:#000;stroke-width:1.34px" transform="matrix(1 0 0 -1 4.478 187.041)"/><path d="m154 83.777 4.634 19.785h-9.268L154 83.777Z" style="fill:#fff;stroke:#000;stroke-width:1.34px" transform="translate(4.478 -19.994)"/></g><g id="feather52"><path d="m154 83.777 4.634 19.785h-9.268L154 83.777Z" style="fill:#fff;stroke:#000;stroke-width:1.34px" transform="matrix(1 0 0 -1 13.85 187.041)"/><path d="m154 83.777 4.634 19.785h-9.268L154 83.777Z" style="fill:#fff;stroke:#000;stroke-width:1.34px" transform="translate(13.85 -19.994)"/></g><g id="feather53"><path d="m154 83.777 4.634 19.785h-9.268L154 83.777Z" style="fill:#fff;stroke:#000;stroke-width:1.34px" transform="matrix(1 0 0 -1 -4.686 187.041)"/><path d="m154 83.777 4.634 19.785h-9.268L154 83.777Z" style="fill:#fff;stroke:#000;stroke-width:1.34px" transform="translate(-4.686 -19.994)"/></g><g id="feather54"><path d="m154 83.777 4.634 19.785h-9.268L154 83.777Z" style="fill:#fff;stroke:#000;stroke-width:1.34px" transform="matrix(1 0 0 -1 27.596 207.035)"/><path d="m154 83.777 4.634 19.785h-9.268L154 83.777Z" style="fill:#fff;stroke:#000;stroke-width:1.34px" transform="translate(27.596)"/></g><g id="feather55"><path d="m154 83.777 4.634 19.785h-9.268L154 83.777Z" style="fill:#fff;stroke:#000;stroke-width:1.34px" transform="matrix(1 0 0 -1 36.968 207.035)"/><path d="m154 83.777 4.634 19.785h-9.268L154 83.777Z" style="fill:#fff;stroke:#000;stroke-width:1.34px" transform="translate(36.968)"/></g><g id="feather56"><path d="m154 83.777 4.634 19.785h-9.268L154 83.777Z" style="fill:#fff;stroke:#000;stroke-width:1.34px" transform="matrix(1 0 0 -1 18.432 207.035)"/><path d="m154 83.777 4.634 19.785h-9.268L154 83.777Z" style="fill:#fff;stroke:#000;stroke-width:1.34px" transform="translate(18.432)"/></g><g transform="matrix(1 0 0 -1 32.073 187.042)"><path d="m154 83.777 4.634 19.785h-9.268L154 83.777Z" style="fill:#fff;stroke:#000;stroke-width:1.34px" id="feather57"/></g><g transform="matrix(1 0 0 -1 41.445 187.042)"><path d="m154 83.777 4.634 19.785h-9.268L154 83.777Z" style="fill:#fff;stroke:#000;stroke-width:1.34px" id="feather58"/></g><g id="feather59"><path d="m154 83.777 4.634 19.785h-9.268L154 83.777Z" style="fill:#fff;stroke:#000;stroke-width:1.34px" transform="matrix(1 0 0 -1 22.91 187.041)"/><path d="m154 83.777 4.634 19.785h-9.268L154 83.777Z" style="fill:#fff;stroke:#000;stroke-width:1.34px" transform="translate(22.91 -19.994)"/></g><g id="feather60"><path d="m154 83.777 4.634 19.785h-9.268L154 83.777Z" style="fill:#fff;stroke:#000;stroke-width:1.34px" transform="matrix(1 0 0 -1 0 245.148)"/><path d="m154 83.777 4.634 19.785h-9.268L154 83.777Z" style="fill:#fff;stroke:#000;stroke-width:1.34px" transform="translate(0 38.113)"/></g><g id="feather61"><path d="m154 83.777 4.634 19.785h-9.268L154 83.777Z" style="fill:#fff;stroke:#000;stroke-width:1.34px" transform="matrix(1 0 0 -1 9.372 245.148)"/><path d="m154 83.777 4.634 19.785h-9.268L154 83.777Z" style="fill:#fff;stroke:#000;stroke-width:1.34px" transform="translate(9.372 38.113)"/></g><g id="feather62"><path d="m154 83.777 4.634 19.785h-9.268L154 83.777Z" style="fill:#fff;stroke:#000;stroke-width:1.34px" transform="matrix(1 0 0 -1 -9.164 245.148)"/><path d="m154 83.777 4.634 19.785h-9.268L154 83.777Z" style="fill:#fff;stroke:#000;stroke-width:1.34px" transform="translate(-9.164 38.113)"/></g><g id="feather63"><path d="m154 83.777 4.634 19.785h-9.268L154 83.777Z" style="fill:#fff;stroke:#000;stroke-width:1.34px" transform="matrix(1 0 0 -1 4.478 225.154)"/><path d="m154 83.777 4.634 19.785h-9.268L154 83.777Z" style="fill:#fff;stroke:#000;stroke-width:1.34px" transform="translate(4.478 18.12)"/></g><g id="feather64"><path d="m154 83.777 4.634 19.785h-9.268L154 83.777Z" style="fill:#fff;stroke:#000;stroke-width:1.34px" transform="matrix(1 0 0 -1 13.85 225.154)"/><path d="m154 83.777 4.634 19.785h-9.268L154 83.777Z" style="fill:#fff;stroke:#000;stroke-width:1.34px" transform="translate(13.85 18.12)"/></g><g id="feather65"><path d="m154 83.777 4.634 19.785h-9.268L154 83.777Z" style="fill:#fff;stroke:#000;stroke-width:1.34px" transform="matrix(1 0 0 -1 -4.686 225.154)"/><path d="m154 83.777 4.634 19.785h-9.268L154 83.777Z" style="fill:#fff;stroke:#000;stroke-width:1.34px" transform="translate(-4.686 18.12)"/></g><g id="feather66"><path d="m154 83.777 4.634 19.785h-9.268L154 83.777Z" style="fill:#fff;stroke:#000;stroke-width:1.34px" transform="matrix(1 0 0 -1 27.596 245.148)"/><path d="m154 83.777 4.634 19.785h-9.268L154 83.777Z" style="fill:#fff;stroke:#000;stroke-width:1.34px" transform="translate(27.596 38.113)"/></g><g id="feather67"><path d="m154 83.777 4.634 19.785h-9.268L154 83.777Z" style="fill:#fff;stroke:#000;stroke-width:1.34px" transform="matrix(1 0 0 -1 36.968 245.148)"/><path d="m154 83.777 4.634 19.785h-9.268L154 83.777Z" style="fill:#fff;stroke:#000;stroke-width:1.34px" transform="translate(36.968 38.113)"/></g><g id="feather68"><path d="m154 83.777 4.634 19.785h-9.268L154 83.777Z" style="fill:#fff;stroke:#000;stroke-width:1.34px" transform="matrix(1 0 0 -1 18.432 245.148)"/><path d="m154 83.777 4.634 19.785h-9.268L154 83.777Z" style="fill:#fff;stroke:#000;stroke-width:1.34px" transform="translate(18.432 38.113)"/></g><g id="feather69"><path d="m154 83.777 4.634 19.785h-9.268L154 83.777Z" style="fill:#fff;stroke:#000;stroke-width:1.34px" transform="matrix(1 0 0 -1 32.073 225.154)"/><path d="m154 83.777 4.634 19.785h-9.268L154 83.777Z" style="fill:#fff;stroke:#000;stroke-width:1.34px" transform="translate(32.073 18.12)"/></g><g id="feather70"><path d="m154 83.777 4.634 19.785h-9.268L154 83.777Z" style="fill:#fff;stroke:#000;stroke-width:1.34px" transform="matrix(1 0 0 -1 41.445 225.154)"/><path d="m154 83.777 4.634 19.785h-9.268L154 83.777Z" style="fill:#fff;stroke:#000;stroke-width:1.34px" transform="translate(41.445 18.12)"/></g><g id="feather71"><path d="m154 83.777 4.634 19.785h-9.268L154 83.777Z" style="fill:#fff;stroke:#000;stroke-width:1.34px" transform="matrix(1 0 0 -1 22.91 225.154)"/><path d="m154 83.777 4.634 19.785h-9.268L154 83.777Z" style="fill:#fff;stroke:#000;stroke-width:1.34px" transform="translate(22.91 18.12)"/></g></g><g transform="matrix(1.24812 .74969 .52016 -1.54844 37.335 96.774)"><g id="feather72"><path d="m154 83.777 4.634 19.785h-9.268L154 83.777Z" style="fill:#fff;stroke:#000;stroke-width:1.17px" transform="matrix(1 0 0 -1 0 207.035)"/><path d="m154 83.777 4.634 19.785h-9.268L154 83.777Z" style="fill:#fff;stroke:#000;stroke-width:1.46px"/></g><g id="feather73"><path d="m154 83.777 4.634 19.785h-9.268L154 83.777Z" style="fill:#fff;stroke:#000;stroke-width:1.17px" transform="matrix(1 0 0 -1 9.372 207.035)"/><path d="m154 83.777 4.634 19.785h-9.268L154 83.777Z" style="fill:#fff;stroke:#000;stroke-width:1.46px" transform="translate(9.372)"/></g><g id="feather74"><path d="m154 83.777 4.634 19.785h-9.268L154 83.777Z" style="fill:#fff;stroke:#000;stroke-width:1.17px" transform="matrix(1 0 0 -1 -9.164 207.035)"/><path d="m154 83.777 4.634 19.785h-9.268L154 83.777Z" style="fill:#fff;stroke:#000;stroke-width:1.46px" transform="translate(-9.164)"/></g><g id="feather75"><path d="m154 83.777 4.634 19.785h-9.268L154 83.777Z" style="fill:#fff;stroke:#000;stroke-width:1.17px" transform="matrix(1 0 0 -1 4.478 187.041)"/><path d="m154 83.777 4.634 19.785h-9.268L154 83.777Z" style="fill:#fff;stroke:#000;stroke-width:1.46px" transform="translate(4.478 -19.994)"/></g><g id="feather76"><path d="m154 83.777 4.634 19.785h-9.268L154 83.777Z" style="fill:#fff;stroke:#000;stroke-width:1.17px" transform="matrix(1 0 0 -1 13.85 187.041)"/><path d="m154 83.777 4.634 19.785h-9.268L154 83.777Z" style="fill:#fff;stroke:#000;stroke-width:1.46px" transform="translate(13.85 -19.994)"/></g><g id="feather77"><path d="m154 83.777 4.634 19.785h-9.268L154 83.777Z" style="fill:#fff;stroke:#000;stroke-width:1.17px" transform="matrix(1 0 0 -1 -4.686 187.041)"/><path d="m154 83.777 4.634 19.785h-9.268L154 83.777Z" style="fill:#fff;stroke:#000;stroke-width:1.46px" transform="translate(-4.686 -19.994)"/></g><g id="feather78"><path d="m154 83.777 4.634 19.785h-9.268L154 83.777Z" style="fill:#fff;stroke:#000;stroke-width:1.17px" transform="matrix(1 0 0 -1 27.596 207.035)"/><path d="m154 83.777 4.634 19.785h-9.268L154 83.777Z" style="fill:#fff;stroke:#000;stroke-width:1.46px" transform="translate(27.596)"/></g><g id="feather79"><path d="m154 83.777 4.634 19.785h-9.268L154 83.777Z" style="fill:#fff;stroke:#000;stroke-width:1.17px" transform="matrix(1 0 0 -1 36.968 207.035)"/><path d="m154 83.777 4.634 19.785h-9.268L154 83.777Z" style="fill:#fff;stroke:#000;stroke-width:1.46px" transform="translate(36.968)"/></g><g id="feather80"><path d="m154 83.777 4.634 19.785h-9.268L154 83.777Z" style="fill:#fff;stroke:#000;stroke-width:1.17px" transform="matrix(1 0 0 -1 18.432 207.035)"/><path d="m154 83.777 4.634 19.785h-9.268L154 83.777Z" style="fill:#fff;stroke:#000;stroke-width:1.46px" transform="translate(18.432)"/></g><g id="feather81"><path d="m154 83.777 4.634 19.785h-9.268L154 83.777Z" style="fill:#fff;stroke:#000;stroke-width:1.17px" transform="matrix(1 0 0 -1 32.073 187.041)"/><path d="m154 83.777 4.634 19.785h-9.268L154 83.777Z" style="fill:#fff;stroke:#000;stroke-width:1.46px" transform="translate(32.073 -19.994)"/></g><g id="feather82"><path d="m154 83.777 4.634 19.785h-9.268L154 83.777Z" style="fill:#fff;stroke:#000;stroke-width:1.17px" transform="matrix(1 0 0 -1 41.445 187.041)"/><path d="m154 83.777 4.634 19.785h-9.268L154 83.777Z" style="fill:#fff;stroke:#000;stroke-width:1.46px" transform="translate(41.445 -19.994)"/></g><g id="feather83"><path d="m154 83.777 4.634 19.785h-9.268L154 83.777Z" style="fill:#fff;stroke:#000;stroke-width:1.17px" transform="matrix(1 0 0 -1 22.91 187.041)"/><path d="m154 83.777 4.634 19.785h-9.268L154 83.777Z" style="fill:#fff;stroke:#000;stroke-width:1.46px" transform="translate(22.91 -19.994)"/></g><path d="m154 83.777 4.634 19.785h-9.268L154 83.777Z" style="fill:#fff;stroke:#000;stroke-width:1.46px" transform="translate(0 38.113)" id="feather84"/><g id="feather85"><path d="m154 83.777 4.634 19.785h-9.268L154 83.777Z" style="fill:#fff;stroke:#000;stroke-width:1.17px" transform="matrix(1 0 0 -1 9.372 245.148)"/><path d="m154 83.777 4.634 19.785h-9.268L154 83.777Z" style="fill:#fff;stroke:#000;stroke-width:1.46px" transform="translate(9.372 38.113)"/></g><path d="m154 83.777 4.634 19.785h-9.268L154 83.777Z" style="fill:#fff;stroke:#000;stroke-width:1.46px" transform="translate(-9.164 38.113)" id="feather86"/><g id="feather87"><path d="m154 83.777 4.634 19.785h-9.268L154 83.777Z" style="fill:#fff;stroke:#000;stroke-width:1.17px" transform="matrix(1 0 0 -1 4.478 225.154)"/><path d="m154 83.777 4.634 19.785h-9.268L154 83.777Z" style="fill:#fff;stroke:#000;stroke-width:1.46px" transform="translate(4.478 18.12)"/></g><g id="feather88"><path d="m154 83.777 4.634 19.785h-9.268L154 83.777Z" style="fill:#fff;stroke:#000;stroke-width:1.17px" transform="matrix(1 0 0 -1 13.85 225.154)"/><path d="m154 83.777 4.634 19.785h-9.268L154 83.777Z" style="fill:#fff;stroke:#000;stroke-width:1.46px" transform="translate(13.85 18.12)"/></g><g id="feather89"><path d="m154 83.777 4.634 19.785h-9.268L154 83.777Z" style="fill:#fff;stroke:#000;stroke-width:1.17px" transform="matrix(1 0 0 -1 -4.686 225.154)"/><path d="m154 83.777 4.634 19.785h-9.268L154 83.777Z" style="fill:#fff;stroke:#000;stroke-width:1.46px" transform="translate(-4.686 18.12)"/></g><g id="feather90"><path d="m154 83.777 4.634 19.785h-9.268L154 83.777Z" style="fill:#fff;stroke:#000;stroke-width:1.17px" transform="matrix(1 0 0 -1 27.596 245.148)"/><path d="m154 83.777 4.634 19.785h-9.268L154 83.777Z" style="fill:#fff;stroke:#000;stroke-width:1.46px" transform="translate(27.596 38.113)"/></g><g id="feather91"><path d="m154 83.777 4.634 19.785h-9.268L154 83.777Z" style="fill:#fff;stroke:#000;stroke-width:1.17px" transform="matrix(1 0 0 -1 36.968 245.148)"/><path d="m154 83.777 4.634 19.785h-9.268L154 83.777Z" style="fill:#fff;stroke:#000;stroke-width:1.46px" transform="translate(36.968 38.113)"/></g><g id="feather92"><path d="m154 83.777 4.634 19.785h-9.268L154 83.777Z" style="fill:#fff;stroke:#000;stroke-width:1.17px" transform="matrix(1 0 0 -1 18.432 245.148)"/><path d="m154 83.777 4.634 19.785h-9.268L154 83.777Z" style="fill:#fff;stroke:#000;stroke-width:1.46px" transform="translate(18.432 38.113)"/></g><g id="feather93"><path d="m154 83.777 4.634 19.785h-9.268L154 83.777Z" style="fill:#fff;stroke:#000;stroke-width:1.17px" transform="matrix(1 0 0 -1 32.073 225.154)"/><path d="m154 83.777 4.634 19.785h-9.268L154 83.777Z" style="fill:#fff;stroke:#000;stroke-width:1.46px" transform="translate(32.073 18.12)"/></g><g id="feather94"><path d="m154 83.777 4.634 19.785h-9.268L154 83.777Z" style="fill:#fff;stroke:#000;stroke-width:1.17px" transform="matrix(1 0 0 -1 41.445 225.154)"/><path d="m154 83.777 4.634 19.785h-9.268L154 83.777Z" style="fill:#fff;stroke:#000;stroke-width:1.46px" transform="translate(41.445 18.12)"/></g><g id="feather95"><path d="m154 83.777 4.634 19.785h-9.268L154 83.777Z" style="fill:#fff;stroke:#000;stroke-width:1.17px" transform="matrix(1 0 0 -1 22.91 225.154)"/><path d="m154 83.777 4.634 19.785h-9.268L154 83.777Z" style="fill:#fff;stroke:#000;stroke-width:1.46px" transform="translate(22.91 18.12)"/></g></g><g transform="matrix(-.5681 -1.44896 -1.10848 1.12415 565.465 221.114)"><g id="feather96"><path d="m154 83.777 4.634 19.785h-9.268L154 83.777Z" style="fill:#fff;stroke:#000;stroke-width:1.08px" transform="matrix(1 0 0 -1 0 207.035)"/><path d="m154 83.777 4.634 19.785h-9.268L154 83.777Z" style="fill:#fff;stroke:#000;stroke-width:1.66px"/></g><g id="feather97"><path d="m154 83.777 4.634 19.785h-9.268L154 83.777Z" style="fill:#fff;stroke:#000;stroke-width:1.08px" transform="matrix(1 0 0 -1 9.372 207.035)"/><path d="m154 83.777 4.634 19.785h-9.268L154 83.777Z" style="fill:#fff;stroke:#000;stroke-width:1.66px" transform="translate(9.372)"/></g><g id="feather98"><path d="m154 83.777 4.634 19.785h-9.268L154 83.777Z" style="fill:#fff;stroke:#000;stroke-width:1.08px" transform="matrix(1 0 0 -1 -9.164 207.035)"/><path d="m154 83.777 4.634 19.785h-9.268L154 83.777Z" style="fill:#fff;stroke:#000;stroke-width:1.66px" transform="translate(-9.164)"/></g><g id="feather99"><path d="m154 83.777 4.634 19.785h-9.268L154 83.777Z" style="fill:#fff;stroke:#000;stroke-width:1.08px" transform="matrix(1 0 0 -1 4.478 187.041)"/><path d="m154 83.777 4.634 19.785h-9.268L154 83.777Z" style="fill:#fff;stroke:#000;stroke-width:1.66px" transform="translate(4.478 -19.994)"/></g><g id="feather100"><path d="m154 83.777 4.634 19.785h-9.268L154 83.777Z" style="fill:#fff;stroke:#000;stroke-width:1.08px" transform="matrix(1 0 0 -1 13.85 187.041)"/><path d="m154 83.777 4.634 19.785h-9.268L154 83.777Z" style="fill:#fff;stroke:#000;stroke-width:1.66px" transform="translate(13.85 -19.994)"/></g><g id="feather101"><path d="m154 83.777 4.634 19.785h-9.268L154 83.777Z" style="fill:#fff;stroke:#000;stroke-width:1.08px" transform="matrix(1 0 0 -1 -4.686 187.041)"/><path d="m154 83.777 4.634 19.785h-9.268L154 83.777Z" style="fill:#fff;stroke:#000;stroke-width:1.66px" transform="translate(-4.686 -19.994)"/></g><g id="feather102"><path d="m154 83.777 4.634 19.785h-9.268L154 83.777Z" style="fill:#fff;stroke:#000;stroke-width:1.08px" transform="matrix(1 0 0 -1 27.596 207.035)"/><path d="m154 83.777 4.634 19.785h-9.268L154 83.777Z" style="fill:#fff;stroke:#000;stroke-width:1.66px" transform="translate(27.596)"/></g><g id="feather103"><path d="m154 83.777 4.634 19.785h-9.268L154 83.777Z" style="fill:#fff;stroke:#000;stroke-width:1.08px" transform="matrix(1 0 0 -1 36.968 207.035)"/><path d="m154 83.777 4.634 19.785h-9.268L154 83.777Z" style="fill:#fff;stroke:#000;stroke-width:1.66px" transform="translate(36.968)"/></g><g id="feather104"><path d="m154 83.777 4.634 19.785h-9.268L154 83.777Z" style="fill:#fff;stroke:#000;stroke-width:1.08px" transform="matrix(1 0 0 -1 18.432 207.035)"/><path d="m154 83.777 4.634 19.785h-9.268L154 83.777Z" style="fill:#fff;stroke:#000;stroke-width:1.66px" transform="translate(18.432)"/></g><g id="feather105"><path d="m154 83.777 4.634 19.785h-9.268L154 83.777Z" style="fill:#fff;stroke:#000;stroke-width:1.08px" transform="matrix(1 0 0 -1 32.073 187.041)"/><path d="m154 83.777 4.634 19.785h-9.268L154 83.777Z" style="fill:#fff;stroke:#000;stroke-width:1.66px" transform="translate(32.073 -19.994)"/></g><g id="feather106"><path d="m154 83.777 4.634 19.785h-9.268L154 83.777Z" style="fill:#fff;stroke:#000;stroke-width:1.08px" transform="matrix(1 0 0 -1 41.445 187.041)"/><path d="m154 83.777 4.634 19.785h-9.268L154 83.777Z" style="fill:#fff;stroke:#000;stroke-width:1.66px" transform="translate(41.445 -19.994)"/></g><g id="feather107"><path d="m154 83.777 4.634 19.785h-9.268L154 83.777Z" style="fill:#fff;stroke:#000;stroke-width:1.08px" transform="matrix(1 0 0 -1 22.91 187.041)"/><path d="m154 83.777 4.634 19.785h-9.268L154 83.777Z" style="fill:#fff;stroke:#000;stroke-width:1.66px" transform="translate(22.91 -19.994)"/></g><g id="feather108"><path d="m154 83.777 4.634 19.785h-9.268L154 83.777Z" style="fill:#fff;stroke:#000;stroke-width:1.08px" transform="matrix(1 0 0 -1 0 245.148)"/><path d="m154 83.777 4.634 19.785h-9.268L154 83.777Z" style="fill:#fff;stroke:#000;stroke-width:1.66px" transform="translate(0 38.113)"/></g><g id="feather109"><path d="m154 83.777 4.634 19.785h-9.268L154 83.777Z" style="fill:#fff;stroke:#000;stroke-width:1.08px" transform="matrix(1 0 0 -1 9.372 245.148)"/><path d="m154 83.777 4.634 19.785h-9.268L154 83.777Z" style="fill:#fff;stroke:#000;stroke-width:1.66px" transform="translate(9.372 38.113)"/></g><g id="feather110"><path d="m154 83.777 4.634 19.785h-9.268L154 83.777Z" style="fill:#fff;stroke:#000;stroke-width:1.08px" transform="matrix(1 0 0 -1 -9.164 245.148)"/><path d="m154 83.777 4.634 19.785h-9.268L154 83.777Z" style="fill:#fff;stroke:#000;stroke-width:1.66px" transform="translate(-9.164 38.113)"/></g><g id="feather111"><path d="m154 83.777 4.634 19.785h-9.268L154 83.777Z" style="fill:#fff;stroke:#000;stroke-width:1.08px" transform="matrix(1 0 0 -1 4.478 225.154)"/><path d="m154 83.777 4.634 19.785h-9.268L154 83.777Z" style="fill:#fff;stroke:#000;stroke-width:1.66px" transform="translate(4.478 18.12)"/></g><g id="feather112"><path d="m154 83.777 4.634 19.785h-9.268L154 83.777Z" style="fill:#fff;stroke:#000;stroke-width:1.08px" transform="matrix(1 0 0 -1 13.85 225.154)"/><path d="m154 83.777 4.634 19.785h-9.268L154 83.777Z" style="fill:#fff;stroke:#000;stroke-width:1.66px" transform="translate(13.85 18.12)"/></g><g id="feather113"><path d="m154 83.777 4.634 19.785h-9.268L154 83.777Z" style="fill:#fff;stroke:#000;stroke-width:1.08px" transform="matrix(1 0 0 -1 -4.686 225.154)"/><path d="m154 83.777 4.634 19.785h-9.268L154 83.777Z" style="fill:#fff;stroke:#000;stroke-width:1.66px" transform="translate(-4.686 18.12)"/></g><g id="feather114"><path d="m154 83.777 4.634 19.785h-9.268L154 83.777Z" style="fill:#fff;stroke:#000;stroke-width:1.08px" transform="matrix(1 0 0 -1 27.596 245.148)"/><path d="m154 83.777 4.634 19.785h-9.268L154 83.777Z" style="fill:#fff;stroke:#000;stroke-width:1.66px" transform="translate(27.596 38.113)"/></g><g id="feather115"><path d="m154 83.777 4.634 19.785h-9.268L154 83.777Z" style="fill:#fff;stroke:#000;stroke-width:1.08px" transform="matrix(1 0 0 -1 36.968 245.148)"/><path d="m154 83.777 4.634 19.785h-9.268L154 83.777Z" style="fill:#fff;stroke:#000;stroke-width:1.66px" transform="translate(36.968 38.113)"/></g><g id="feather116"><path d="m154 83.777 4.634 19.785h-9.268L154 83.777Z" style="fill:#fff;stroke:#000;stroke-width:1.08px" transform="matrix(1 0 0 -1 18.432 245.148)"/><path d="m154 83.777 4.634 19.785h-9.268L154 83.777Z" style="fill:#fff;stroke:#000;stroke-width:1.66px" transform="translate(18.432 38.113)"/></g><g id="feather117"><path d="m154 83.777 4.634 19.785h-9.268L154 83.777Z" style="fill:#fff;stroke:#000;stroke-width:1.08px" transform="matrix(1 0 0 -1 32.073 225.154)"/><path d="m154 83.777 4.634 19.785h-9.268L154 83.777Z" style="fill:#fff;stroke:#000;stroke-width:1.66px" transform="translate(32.073 18.12)"/></g><g id="feather118"><path d="m154 83.777 4.634 19.785h-9.268L154 83.777Z" style="fill:#fff;stroke:#000;stroke-width:1.08px" transform="matrix(1 0 0 -1 41.445 225.154)"/><path d="m154 83.777 4.634 19.785h-9.268L154 83.777Z" style="fill:#fff;stroke:#000;stroke-width:1.66px" transform="translate(41.445 18.12)"/></g><g id="feather119"><path d="m154 83.777 4.634 19.785h-9.268L154 83.777Z" style="fill:#fff;stroke:#000;stroke-width:1.08px" transform="matrix(1 0 0 -1 22.91 225.154)"/><path d="m154 83.777 4.634 19.785h-9.268L154 83.777Z" style="fill:#fff;stroke:#000;stroke-width:1.66px" transform="translate(22.91 18.12)"/></g></g></g><path d="M203.408 170.023c-8.863 71.153-11.602 146.163-43.482 202.824-14.221 137.712-4.118 243.998-3.856 244.579 3.79 8.374-88.712-8.139-91.653-14.456l-7.339-42.607 15.519-64.071-12.898-72.184 23.878-71.01-13.475-21.458 21.979-89.453-18.138-25.669 29.245-119.185 100.22 72.69ZM315.103 185.304l22.028 164.308 18.657 13.956 4.897 98.513-17.349 43.31 5.378 68.871-15.814 31.906-32.181 12.186 19.668-140.362c4.591-25.394 7.111-41.26 32.539-72.783l2.862-41.641 3.52-25.619-9.857-71.232 11.584-29.265-3.151-97.341" style="stroke:#ffe000;stroke-width:2px"/></g><g id="Arm1"><g id="Gauntlet"><path d="M351.193 400.931c-4.341 5.488-9.991 8.36-16.845 8.821-1.436-1.781-1.94-4.361-1.42-7.818-5.231 3.791-10.462 3.543-15.692.631.091-5.521.124-9.632 3.008-16.271-4.749 4.073-8.555 3.698-14.142 2.185-2.972-6.43-.149-17.959 3.877-30.546 3.902-.108-6.565-26.788-14.849-34.33 16.416-.564 29.411-3.914 45.827-9.784-2.216 30.74 2.725 44.307 6.222 43.154l8.989 7.567-4.56 12.372 3.15 7.896-3.565 16.123Z" style="fill:#ff1000;stroke:#000;stroke-width:2px"/><path d="m347.179 356.973-13.041-3.565-4.275 7.975-19.884-3.45 19.884 3.45-3.206 5.591 24.951 9.938-10.651-4.243-8.029 29.265 8.029-29.265-14.3-5.695-6.413 19.32M303.004 334.837c13.165-9.02 20.956-10.239 37.409-8.297" style="fill:none;stroke:#000;stroke-width:2px"/></g><g id="BackSpear"><path d="m287.629 339.763 30.37 19.562 11.864 2.058 3.385-6.897-41.121-29.202-4.498 14.479Z" style="fill:#ffb300;stroke:#000;stroke-width:2px"/><path d="M294.467 344.167c-3.012-6.499-.928-10.365 3.012-15.082M301.144 348.468c-2.448-7.187-1.606-9.938 3.921-13.996M310.378 354.416c-2.419-7.034-2.622-9.255 3.523-13.669M317.999 359.325c-2.41-7.144-1.545-11.72 3.419-13.24" style="fill:none;stroke:#000;stroke-width:2px"/><path d="M320.263 358.829c-.819-5.525-.039-6.495 3.597-9.365" style="fill:none;stroke:#000;stroke-width:2px" transform="translate(4.722 1.708)"/></g><path d="m287.776 339.837 6.167-21.992" style="fill:none;stroke:#ffe000;stroke-width:2px"/><path d="m372.804 368.103 19.024 21.344 3.153-33.007-9.857-71.232 11.584-29.266-3.15-97.55-42.783 45.403c-6.49 56.638-8.37 112.654 22.029 164.308Z" style="stroke:#ffe000;stroke-width:2px" transform="translate(-35.673 -18.49)"/><g id="Spear1"><path d="m494.065 490.806-52.961-17.71 10.462-4.17-95.11-60.834-2.585-9.629 1.749-8 100.077 69.708-.204-12.382 38.572 43.017Z" style="fill:#ffb300;stroke:#000;stroke-width:2px" transform="translate(-2.195 -21.64)"/><path d="M446.567 465.305c-2.632-4.003-2.484-8.243-.086-11.553" style="fill:none;stroke:#000;stroke-width:2px" transform="translate(-2.195 -21.64)"/><path d="M445.916 465.63c-2.631-4.003-3.073-9.183-.675-12.492" style="fill:none;stroke:#000;stroke-width:2px" transform="translate(-10.52 -27.688)"/><path d="M445.656 465.305c-2.631-4.003-2.673-9.353-.275-12.662" style="fill:none;stroke:#000;stroke-width:2px" transform="translate(-18.21 -32.452)"/><path d="M446.567 465.305c-2.632-4.003-2.713-9.932-.314-13.241" style="fill:none;stroke:#000;stroke-width:2px" transform="translate(-26.518 -37.053)"/><path d="M445.851 465.761c-2.631-4.004-.989-9.436 1.41-12.745" style="fill:none;stroke:#000;stroke-width:2px" transform="translate(-34.842 -43.1)"/><path d="M445.465 465.448c-2.631-4.004-.742-9.813 1.656-13.122" style="fill:none;stroke:#000;stroke-width:2px" transform="translate(-42.532 -47.865)"/><path d="M445.851 465.874c-2.631-4.003-.907-10.385 1.492-13.695" style="fill:none;stroke:#000;stroke-width:2px" transform="translate(-50.97 -53.441)"/><path d="M446 466.504c-2.631-4.003-.392-10.303 2.006-13.613" style="fill:none;stroke:#000;stroke-width:2px" transform="translate(-59.295 -59.49)"/><path d="M445.934 466.371c-2.631-4.003-.642-10.983 1.756-14.293" style="fill:none;stroke:#000;stroke-width:2px" transform="translate(-66.985 -64.253)"/><path d="M445.368 466.005c-2.631-4.004-1.465-11.662.933-14.972" style="fill:none;stroke:#000;stroke-width:2px" transform="translate(-72.301 -67.879)"/><path d="M444.802 466.571c-2.631-4.004-.222-11.507 2.177-14.816" style="fill:none;stroke:#000;stroke-width:2px" transform="translate(-80.626 -73.927)"/><path d="M445.268 466.737c-2.631-4.003-.227-11.945 2.171-15.255" style="fill:none;stroke:#000;stroke-width:2px" transform="translate(-88.316 -78.69)"/><path d="M451.469 468.95c2.645-2.561 4.579-5.441 4.228-8.779M483.079 483.801l-32.349-10.669c8.076-.516 10.81-6.944 8.543-15.644l23.806 26.313M457.81 470.526l25.269 13.275M459.927 465.724l23.152 18.077" style="fill:none;stroke:#000;stroke-width:2px" transform="translate(-2.195 -21.64)"/></g></g><path d="m141.813 177.581 3.335 29.369 19.26-21.717-13.864 25.803 27.828-5.77-25.767 12.382 25.767 12.381-27.828-5.769 13.864 25.803-19.26-21.717-3.335 29.369-3.335-29.369-19.259 21.717 13.863-25.803-27.827 5.769 25.766-12.381-25.766-12.382 27.827 5.77-13.863-25.803 19.259 21.717 3.335-29.369Z" style="fill:#ffe000;stroke:#000;stroke-opacity:0;stroke-width:1.65px" transform="matrix(1 .38624 0 1 -2.847 -87.113)"/><path d="m141.813 177.581 3.915 27.51 18.68-19.858-12.347 24.654 26.311-4.621-23.892 12.382 23.892 12.381-26.311-4.621 12.347 24.655-18.68-19.858-3.915 27.51-3.914-27.51-18.68 19.858 12.347-24.655-26.311 4.621 23.891-12.381-23.891-12.382 26.311 4.621-12.347-24.654 18.68 19.858 3.914-27.51Z" style="fill:#ffe000;stroke:#000;stroke-opacity:0;stroke-width:4.07px" transform="matrix(.63827 -.412 0 .68625 247.357 103.515)"/><g id="Head"><path d="m247.397 176.466-35.832-26.085.391-41.382 4.558-9.775-12.301 5.602 23.284-29.709-10.873 5.327c13.573-26.365 29.421-45.201 51.293-44.094l48.195-.429-1.823 3.111 17.59 8.366-5.899 7.829 18.019 7.616-6.543 3.217 10.082 6.865c4.639 21.193 5.693 36.081 2.038 42.688l-4.398 41.829-9.76-10.725-23.489 31.211c-36.512 8.738-56.5-1.451-58.745-31.96l-5.787 30.498" style="stroke:#000;stroke-width:2px"/><g id="Face"><path d="M281.521 102.593c-11.175-.659-14.803 19.336-10.488 48.328-3.197-.297-4.247-2.418-8.235-5.318-.643 5.681-.611 11.423 1.179 17.326-3.859-1.423-7.8-5.762-11.659-10.504l1.243 16.967s22.577 17.302 38.363 24c8.771-4.325 15.288-8.758 18.868-17.367 5.14-10.052 11.867-21.521 17.67-35.11l-.478-32.478c-3.898 7.541-6.898 11.487-9.469 13.721.84-8.384.063-15.33-5.068-18.405-2.664 5.932-5.625 10.378-9.173 11.887l-8.913-19.123-7.493 13.799-6.347-7.723Z" style="fill:#9d807a;stroke:#000;stroke-width:2px"/><path d="M273.806 123.345c5.456.985 24.012 8.834 26.343 10.332 1.385-.078 1.976-1.013 2.385-1.873l-1.023-2.523" style="fill:none;stroke:#000;stroke-width:2px" transform="translate(-.515 -1.094)"/><path d="M308.042 132.956c1.041 2.307 2.728 3.431 4.774 3.895 5.708-4.747 10.814-7.691 15.516-9.423M308.042 132.956l1.892-3.148M304.517 124.579h5.055M290.767 157.581c4.899-4.438 7.542-9.852 7.081-19.114" style="fill:none;stroke:#000;stroke-width:2px"/><path d="M310.492 150.043c-2.249-2.913-3.207-9.488-2.347-17.011" style="fill:none;stroke:#000;stroke-width:2px"/><path d="M271.446 136.493c6.04 4.573 12.421 6.698 18.808 8.774 2.382-.715 4.815-1.068 7.333-.823-.526-4.484.538-7.689 2.918-11.913l-22.936-3.216c-2.656 1.655-4.498 4.286-6.123 7.178ZM321.267 145.946a16.329 16.329 0 0 0 5.399-5.847c-.16-4.041.364-9.029 1.358-13.071-5.424 2.329-10.645 5.24-15.685 8.666-1.915-.399-3.247-1.491-4.261-2.676.046 3.861.824 7.585 1.75 11.28 3.924-.254 7.735.31 11.439 1.648Z" style="stroke:#000;stroke-width:2px"/><path d="m297.634 162.048 6.032 1.56 6.007-1.632" style="stroke:#ca0017;stroke-opacity:0;stroke-width:.22px" transform="matrix(1.01535 0 0 3.075 -5.07 -338.306)"/><path d="m297.241 159.888 2.18-21.456 6.087-6.484.996 4.843-.144 10.23 3.063 12.84-5.266 1.966-6.916-1.939Z" style="fill:#996c61;stroke:#fff;stroke-opacity:0;stroke-width:2px"/><path d="M289.495 177.349c1.745.502 3.245 1.516 4.591 2.857 4.351-1.31 8.622-1.679 12.74-.257.217-1.313.822-2.471 2.038-3.384-2.151-4.364-9.285-2.41-19.369.784Z" style="fill:#996c61;stroke:#ca0017;stroke-opacity:0;stroke-width:1.63px" transform="translate(-71.924 -41.567) scale(1.23066)"/><path d="M288.067 176.992c4.569-1.49 6.499-3.104 10.335-6.79 1.956.95 3.531 2.042 4.511 3.358 1.05-1.376 2.37-2.123 3.787-2.644.887 2.477 2.301 4.63 4.774 5.521-6.743-1.921-13.005-2.159-23.407.555Z" style="stroke:#000;stroke-width:1.63px" transform="translate(-71.924 -41.567) scale(1.23066)"/><path d="m321.766 137.604-1.483 3.754-2.723-2.997 4.206-.757ZM319.187 134.886l2.579 2.718-4.257.759 1.678-3.477Z" style="fill:#de3f51;stroke:#ca0017;stroke-width:.37px" transform="scale(1.36926) rotate(15 417.062 -210.988)"/><path d="m320.239 141.278-1.069-6.041" style="fill:none;stroke:#ca0017;stroke-width:.37px" transform="scale(1.36926) rotate(15 417.062 -210.988)"/><path d="m321.766 137.604-1.483 3.754-2.723-2.997 4.206-.757ZM319.187 134.886l2.579 2.718-4.257.759 1.678-3.477Z" style="fill:#fff;stroke:#797979;stroke-width:.37px" transform="scale(1.36926) rotate(15 409.795 -286.373)"/><path d="m320.239 141.278-1.069-6.041" style="fill:none;stroke:#797979;stroke-width:.37px" transform="scale(1.36926) rotate(15 409.795 -286.373)"/><path d="m300.844 170.537 2.358-7.636" style="fill:none;stroke:#000;stroke-width:2px"/></g><g id="Hair"><path d="M256.772 26.175c4.039-.122 13.11 2.892 20.534 13.114 7.915-4.51 14.383-8.407 17.148-7.884-.336.227-8.536 12.411-8.466 13.44 4.93-1.843 10.266-1.899 15.196-1.102-3.153 3.193-5.108 5.999-4.342 9.672 6.552.16 11.546 1.014 14.758 2.943 6.377 3.83 6.58 16.122 5.628 19.003-8.948-6.078-18.087-15.762-18.319-15.098 2.779 4.674 5.137 7.066 7.421 10.805-2.698 5.981-2.295 14.185-5.045 21.872-4.955-5.859-9.116-11.423-12.95-18.965-.234-5.598 2.488-10.712 1.107-10.887-1.546-.196-6.586 12.933-6.698 12.929-1.116 8.794-3.436 17.1-3.408 17.018.006-.015-5.086-6.644-7.594-17.111-.002-.007 5.813-13.776 5.556-14.739-.789-2.951-16.287 8.29-34.471 22.122 4.311-11.143 9.887-19.318 16.429-25.23-2.124-2.187-3.471-2.898-6.362-1.598-5.808 9.224-11.058 26.662-11.987 28.761-2.239 1.568-8.511 13.615-10.947 15.2-3.096-1.079 3.65-9.451 11.106-27.519-3.897 3.726-10.502 15.22-14.902 17.186 2.789-9.169 12.317-40.032 12.405-40.212 2.195-4.486 8.782-9.927 20.954-10.074 3.665-3.47 4.85-2.327 8.745-3.03-3.126-1.827-11.685-9.113-11.496-10.616Z" style="fill:#686868;stroke:#000;stroke-width:2px"/><path d="M241.079 64.961c1.147-4.389 2.945-8.427 5.543-12.034.13.286 2.637 1.425 3.034 1.432-2.361 3.948-5.211 7.49-8.577 10.602Z" style="stroke:#000;stroke-width:2px"/><path d="M272.526 47.449c-.089.742 1.047 4.923 1.628 6.055 1.038-.842 5.847-4.693 5.836-4.743M300.269 49.544c2.806-.181 7.996-.24 12.798 1.283l-1.033-3.326c.046-.008 10.264 7.189 16.565 4.328-7.004-14.373-30.94-16.945-37.019-11.774 5.524.875 10.252 1.615 15.827 1.094-.061-.035-7.49 6.868-7.138 8.395ZM258.231 94.072c-2.437-3.398-3.239-6.166-2.512-11.025 1.094-5.912 7.347-9.686 17.582-17.797-4.279 10.362-11.824 27.082-15.07 28.822ZM241.305 112.582c-2.084-2.678-3.681-5.803-4.792-9.374 2.477-8.608 6.429-14.097 11.746-16.7 1.248 2.678 2.303 5.458 2.004 8.951-4.659 5.486-7.141 11.876-8.958 17.123ZM243.809 132.901c-2.804-2.868-5.492-6.057-7.891-10.04-.049-2.931-.578-6.903-1.236-11.153 3.098 5.674 6.984 10.74 8.12 9.66-.17 3.491.162 7.332 1.007 11.533ZM216.455 138.578c2.928-14.412 7.407-35.034 10.653-34.136 2.864 5.53.033 22.72-10.653 34.136ZM287.454 105.608c3.614-4.17 5.741-9.03 6.515-14.519-1.633-4.265-4.373-8.572-7.629-13.244-.373.993-3.392 12.956-3.28 14.324.122 1.484 3.238 13.496 4.394 13.439M267.345 112.102c2.003-6.526 5.091-11.877 8.317-17.079-2.527-4.397-4.546-9.707-6.059-15.93-4.754 8.549-7.844 16.358-8.947 23.285 2.504 4.377 4.692 7.375 6.689 9.724ZM257.077 124.41c-3.169-3.006-5.834-6.695-7.226-12.111 1.243-6.287 3.336-9.683 5.847-11.659-.241 7.818-1.296 15.825 1.379 23.77Z" style="fill:#686868;stroke:#000;stroke-width:2px"/><path d="M272.272 150.127c-4.719-4.823-8.689-22.65-8.748-22.841-.139-.447.305-10.613 2.44-11.72 2.528-1.312 4.928 9.474 4.985 9.58-1.11 9.512-.268 17.533 1.323 24.981Z" style="fill:#686868;stroke:#000;stroke-width:2px" transform="translate(-1.954 .093)"/><path d="M261.628 156.665c-5.219-4.128-9.181-11.013-9.424-10.91.229.15.274-7.32 2.008-11.481 2.733 1.287 4.627 2.891 6.977 5.836l.439 16.555ZM241.816 161.597c-4.439-7.688-7.778-16.156-7.273-25.493l9.627 8.771-2.354 16.722ZM305.58 111.78c-3.238-4.185-5.684-10.734-7.057-16.054 2.111.679 3.146.033 5.013-1.479-.1-1.48 1.232-11.441 2.52-18.3 3.156 6.481 5.422 13.192 6.388 20.24-1.238 5.743-3.436 10.987-6.864 15.593M321.09 113.087c-.903-3.398-2.519-6.849-5.705-10.756 3.124-1.509 4.959-3.877 6.18-6.655 2.526 5.868 2.324 11.67-.475 17.411Z" style="fill:#686868;stroke:#000;stroke-width:2px"/><path d="M329.825 105.54c-3.566-3.621-5.565-7.791-6.596-12.3.293-2.747 1.874-6.944 1.783-13.252-4.135 11.617-7.682 19.569-9.151 14.559.103-7.16-2.853-14.063-8.201-21.096 1.897.024 5.004 2.135 10.578 8.498 1.367 1.386 2.349-3.094 3.209-9.449 2.643 1.159 5.161 3.077 7.087 6.285 1.689 2.812 3.488 6.703 3.811 8.429 1.795 9.598.883 14.94-2.52 18.326Z" style="fill:#686868;stroke:#000;stroke-width:2px"/><path d="M335.622 110.896c-.122-.124-3.935-1.896-4.311-4.821l4.279-13.608c7.09 7.135 11.118 15.186 12.652 23.983-3.401-1.585-6.621-3.532-9.503-6.156-1.415-3.697-2.561-7.131-2.678-10.413-1.014 3.79-.36 11.096-.439 11.015Z" style="fill:#686868;stroke:#000;stroke-width:2px"/><path d="M341.347 74.971c-7.665-3.135-14.997-6.896-21.624-11.978 1.199-2.311 3.142-4.158 6.418-5.17 1.478 2.446 3.939 5.652 5.072 5.859 1.267.232 5.554 3.406 5.595 3.388 1.472-.65 7.997 3.151 9.557 5.568.014.023-2.759 2.077-5.018 2.333Z" style="fill:#686868;stroke:#000;stroke-width:2px" transform="translate(.299 .217)"/><path d="m351.613 99.306-10.572-11.794c-4.154-5.079-7.895-10.364-11.121-15.907 5.604 2.844 10.32 6.367 13.954 10.718 3.203 5.497 5.638 11.196 7.739 16.983Z" style="fill:#686868;stroke:#000;stroke-width:2px"/><path d="M345.857 151.198c-2.688-3.671-4.593-7.845-6.014-12.331-.477-4.92-.151-9.77 1.454-14.508 3.154 2.865 4.176 6.891 5.33 11.963 1.242 5.462.251 10.773-.77 14.876Z" style="fill:#686868;stroke:#000;stroke-width:2px" transform="translate(-.829 .995)"/><path d="m225.822 90.997-3.582 14.862-8.11 10.706 2.732-13.785 8.96-11.783ZM228.659 72.651l-11.251 6.367 15.525-23.287-4.274 16.92" style="fill:#686868;stroke:#000;stroke-width:2px"/></g></g><path d="m125.638 250.082 28.881 48.406-52.067 95.591 30.102 57.355-42.712 100.88 28.068 39.05" style="fill:none;stroke:#000;stroke-width:2px"/></svg>