<svg viewBox="0 0 4233 4233" xmlns="http://www.w3.org/2000/svg" xml:space="preserve" style="fill-rule:evenodd;clip-rule:evenodd;stroke-linecap:round;stroke-linejoin:round;stroke-miterlimit:1.5"><g id="Mesa-de-trabajo1"><path style="fill:none" d="M1008.63 1662.22h4232.04v4232.04H1008.63z" transform="translate(-1008.63 -1662.21)"/><g transform="translate(-993.488 -1972.625)"><path id="Antorcha" d="m2648.21 3843.26-4.17 4.83c28.29 27.38 52.37 54.77 72.51 82.15 2.98 15.84 5.13 31.05 7.76 42.8 3.36 14.95 22.8 15.49 29.15 15.26.27.51.54 1.01.81 1.51 16.2 21.88 32.22 44.04 44.09 72.43 8.82 14.07 12.1 38.73 10.14 42.01 63.13-4.34 129.45-15.28 188.27 8.38 3.47 61.48 23.22 108.5 46.1 152.74-27.36 18.02-60.95 26.69-105.5 18.9-51.54 33.12-25.61 255.34 14.17 250.37 89.75 13.1 166.96 21.61 192.11 11.02 31.83 18.6 44.93 40.09 48.81 62.99-28.57 301.81-62.29 603.62 1.57 905.43l4.73 48.81c23.7 43.3-4.38 58-67.71 51.97-45.89 56.39-16.91 133.58 1.57 207.85 30.53 35.22 72.25 43.97 114.95 50.39-16.13 33.9.69 50.39 9.45 56.69 54.29 67.62 106.92 76.99 177.68 15.44 3.28-4.06 16.55-23.18 19.9-26.16 16.77-14.93 22.08-43.42-5.47-50.42 95.73 11.3 104.99-32.48 110.23-63.26 11.88-59.39 39.53-121.21 2.29-173.04-11.65 5.76-39.36-1.55-54.13-17.18-10.78-11.41-8.34-28.76-19.02-41.25l15.74-74.01c33.82-309.76 23.08-604.67 6.3-897.56 1.49-25.05 17.5-45.26 55.12-58.26l193.99 30.86c60.77-82.28 101.14-238.14 20.16-313.67l-83.46 5.67c-63.42-64.48-70.52-121.45 67.71-159.04l102.35-4.73c-.45-40.35 17.1-76.7 75.7-103.92l-3.14-25.2 92.52-45.16 24-80.81c-8.37-30.94-23.29-58.61-45.17-82.79-20.63-22.8-47.44-42.5-80.8-58.93-42.09-11.68-45.84-30.32-15.75-55.11 17.17-38.25 3.3-60.97-58.26-59.84-23.11-32.55-25.35-58.58 56.69-58.26-34.36-70.86-23.91-141.73 20.47-212.58-10.08-36.27.62-62.15 29.92-78.74l1.57-66.13-75.58 69.28c-150.18 128.6-157.05 257.2-173.22 385.79h-36.21l-39.37 6.3h-118.1l-51.96-107.07 97.63-118.1-57.5-66.8c46.98-15.52 95.06-26.55 150.35-8.5-29.88 19.51 22.68 122.94 41.47 116.43 35.65 1.56 76.7-129.05 76.7-129.05-121.02-45.28-334.07-358.54-259.71-416.76-83.84-36.85-174.17-62.69-189.11-216.16-90.08-43.98-150.33-157.56-212.11-176.7 43.93 59.91 73.96 124.65 85.57 195.76-56.7-18.93-103.06-52.68-130.19-114.01-18.6 81.26 15.83 165.79 95.86 253.14l-25.41-5.35c-84.41-16.82-160.46-178.06-140.98-224.98l-55.28-98.95-172.84-159.55c-40.95-37.13-57.18-42.07-35.9 1.82 34.97 29.55 53.73 62.44 45.52 100.89-28.34-5.14-52.46-5.41-26.87 51.72-72.43-51.49-143.68-108.59-209.26-192.68l16.67 41.36c316.01 363.81 272.63 477.72 118.44 318.37-33.52-11.79-51.47-42.17-49.42-96.44-19.39-2.77-38.1 14.13-66.32-77.79 1.57 32.46-10.85 46.71-29.77 52.48-11.31 10.22-39.66-65.45-40.68-52.9-17.82 219.09-86.6 59.77-146.49-34.22-11.83-8.75-18.28-25.63-29.31-33.98-14.76-11.18-33.81-13.68-47.42-24.3 3.24 55.56 16.02 75.84 31.28 86.97 2.57 11.59 9.3 17.95-1.58 46.49-15.26 43.66-12.91 71.3-2.48 91.59-5.67 17.4-15.69 32.2-21.75 15.94-28.63.08-51.83-11.02-64.48-43.83 7.18-27.24-34.22-36.83-61.99-85.79-65.01-114.62-168.23-286.98-208.33-273.1l13.15 41.4c18.43 13.07 47.05 26.93-12.99 33.95-29.44 1.71-40.26-12.91-36.38-40.43-2.09-19.72-9.83-27.82-26.95-16.59-32.26-1.87-45.23-18.54-46.99-43.83-23.74-38.5-44.42-42.43-63.73-30.97 25.75 8.72 37.13 36.11 45.93 74.83 84.34 21.55 189.28 276.72 155.17 303.21-8.77 41.24-29.66 19.89-54.79-23.36-22.51 9.1-32.43-7.71-34.27-41.16l-8.58-11.17c-11.62 4.66-4.32 149.55 14.18 139.44 20.65-11.29 47.46 85.29 54.15 134.88 35.42-20.35 75.43 3.48 94.37 56.39 8.07 56.76 37.67 73.69 92.82 43.38l-10.82 23.13 50.9 79 14.81 63.21 6.52 76.69 27.31 48.28 3.68 75.31-7.89 48.69-36.75-10.85-56.13-104.29-23.34-70.86-32.01-27.81-3.08 38.77 7.52 103.44 22.13 87.78 19.59 49.78 11.49 80.86 40.63 42.49s30.51 20.07 48.2 26.91c17.68 6.85 119.25 82.45 119.25 82.45 191.92 155.99 238.37 202.99 154.8 49.63-81.86-57.63-127.54-143.64-75.5-184.77 1.96-137.45 219.66 105.24 152.83 172.62 67.66-30.25 102.78-5.64 108.54 68.48l16.58 20.88c42.86 16.55 37.22 48.51-8.24 93.11-92.12-103.03-77.86-68.05-44.34 39.39 4.38-1.08 8.51-1.75 12.41-2.06Zm548.27-506.36c-11.31-7.86-20.88-16.91-27.46-27.06-4.3-36.59-7.36-73.43-51.87-102.23-3.77-33.25-15.5-54.28-31.08-69.37l-12.63 4.37c-8.69 7.65-10.85 16.85 4.57 30.23-15.84-1.28-17.72 4.23-11.81 13.52 18.03 44.87 31.09 95.91 26.58 168.72-30.01-6.27-56.9-21.32-78.75-50.51l-9.76 9.27c23.56 51.58 41.64 103.92 36.34 159.44-14.69-15.56-30.08-27.12-48.16-23.39-6.86-1.05-9.47-6.46-4.45-19.67l-16.46 4.47c-8.26-.72-15.16-20.01-12.92-48.5-8.19-1.55-15.71-12.63-22.86-28.61l-20.28 12.91c4.35 17.96 8.9 35.7 13.92 52.97 24.82 36.35 42.21 76.03 52.68 118.84 7.16 10.05 15.03 19.38 23.72 27.87 16.72 25.46 32.15 16.86 47.15-3.36 3.63 20.86 10.41 40.97 24.41 59.36l82.15-15.86 61.41-64.56-97.63-107.07 73.19-101.78Z" style="fill:url(#_Linear1);stroke:#000;stroke-width:1px"/></g></g><defs><linearGradient id="_Linear1" x1="0" y1="0" x2="1" y2="0" gradientUnits="userSpaceOnUse" gradientTransform="scale(1753.72) rotate(72.868 -.413 2.035)"><stop offset="0" style="stop-color:#261419;stop-opacity:1"/><stop offset="1" style="stop-color:#e1321e;stop-opacity:1"/></linearGradient></defs></svg>